<?xml version="1.0" encoding="UTF-8"?>
<svg width="42px" height="42px" viewBox="0 0 42 42" version="1.1" xmlns="http://www.w3.org/2000/svg" xmlns:xlink="http://www.w3.org/1999/xlink">
    <!-- Generator: Sketch 52.6 (67491) - http://www.bohemiancoding.com/sketch -->
    <title>Artboard</title>
    <desc>Created with Sketch.</desc>
    <defs>
        <path d="M10,4 C6.6862915,4 4,6.6862915 4,10 L4,41 C4,44.3137085 6.6862915,47 10,47 L44,47 C47.3137085,47 50,44.3137085 50,41 L50,10 C50,6.6862915 47.3137085,4 44,4 L10,4 Z M10,1.77635684e-15 L44,1.77635684e-15 C49.5228475,7.61826213e-16 54,4.4771525 54,10 L54,41 C54,46.5228475 49.5228475,51 44,51 L10,51 C4.4771525,51 8.8817842e-16,46.5228475 0,41 L0,10 C-8.8817842e-16,4.4771525 4.4771525,1.01453063e-15 10,1.77635684e-15 Z" id="path-1"></path>
    </defs>
    <g id="Artboard" stroke="none" stroke-width="1" fill="none" fill-rule="evenodd">
        <g id="Group-2" transform="translate(1.000000, -13.000000)">
            <circle id="Oval" fill="#000000" cx="34" cy="48" r="6"></circle>
            <circle id="Oval" fill="#000000" cx="6" cy="20" r="6"></circle>
            <g id="Rectangle" transform="translate(4.000000, 0.000000)">
                <mask id="mask-2" fill="white">
                    <use xlink:href="#path-1"></use>
                </mask>
                <g id="Mask" fill-rule="nonzero"></g>
                <rect fill="#000000" mask="url(#mask-2)" x="-2" y="24" width="28" height="28"></rect>
            </g>
        </g>
    </g>
</svg>