<svg xmlns="http://www.w3.org/2000/svg" xmlns:xlink="http://www.w3.org/1999/xlink" xmlns:lucid="lucid" width="1220" height="710"><g transform="translate(-40 -100)" lucid:page-tab-id="0_0"><path d="M0 0h1870.4v1323.2H0z" fill="#fff"/><path d="M260 120h220v100H260z" stroke="#000" stroke-width="2" fill="#fff"/><use xlink:href="#a" transform="matrix(1,0,0,1,265,125) translate(20.89999999999999 48.15)"/><use xlink:href="#b" transform="matrix(1,0,0,1,265,125) translate(81.79999999999998 48.15)"/><use xlink:href="#c" transform="matrix(1,0,0,1,265,125) translate(160.10000000000002 48.15)"/><path d="M260 320h220v100H260z" stroke="#000" stroke-width="2" fill="#fff"/><use xlink:href="#d" transform="matrix(1,0,0,1,265,325) translate(20.5 48.15)"/><path d="M260 520h220v100H260z" stroke="#000" stroke-width="2" fill="#fff"/><use xlink:href="#e" transform="matrix(1,0,0,1,265,525) translate(40.94999999999999 48.15)"/><path d="M640 520h220v100H640z" stroke="#000" stroke-width="2" fill="#fff"/><use xlink:href="#f" transform="matrix(1,0,0,1,645,525) translate(65.05 48.15)"/><path d="M370 222v78.5" stroke="#000" stroke-width="2" fill="none"/><path d="M371 222.03h-2V221h2z"/><path d="M370 315.76l-4.64-14.26h9.28z" stroke="#000" stroke-width="2"/><path d="M370 422v78.5" stroke="#000" stroke-width="2" fill="none"/><path d="M371 422.03h-2V421h2z"/><path d="M370 515.76l-4.64-14.26h9.28z" stroke="#000" stroke-width="2"/><path d="M638 544H499.5" stroke="#000" stroke-width="2" fill="none"/><path d="M639 545h-1.03v-2H639z"/><path d="M484.24 544l14.26-4.64v9.28z" stroke="#000" stroke-width="2"/><path d="M482 592h138.5" stroke="#000" stroke-width="2" fill="none"/><path d="M482.03 593H481v-2h1.03z"/><path d="M635.76 592l-14.26 4.64v-9.28z" stroke="#000" stroke-width="2"/><path d="M380 240h240v60H380z" stroke="#000" stroke-opacity="0" stroke-width="2" fill="#fff" fill-opacity="0"/><use xlink:href="#g" transform="matrix(1,0,0,1,385,245) translate(0 30.025)"/><path d="M380 440h240v60H380z" stroke="#000" stroke-opacity="0" stroke-width="2" fill="#fff" fill-opacity="0"/><use xlink:href="#h" transform="matrix(1,0,0,1,385,445) translate(0 30.025)"/><use xlink:href="#c" transform="matrix(1,0,0,1,385,445) translate(52.550000000000004 30.025)"/><path d="M188 680c17.67 0 32 8.95 32 20s-14.33 20-32 20H92c-17.67 0-32-8.95-32-20s14.33-20 32-20z" stroke="#000" stroke-width="2" fill="#fff"/><use xlink:href="#i" transform="matrix(1,0,0,1,65,685) translate(52.005 18.15)"/><path d="M188 700c17.67 0 32 8.95 32 20s-14.33 20-32 20H92c-17.67 0-32-8.95-32-20s14.33-20 32-20z" stroke="#000" stroke-width="2" fill="#fff"/><use xlink:href="#i" transform="matrix(1,0,0,1,65,705) translate(52.005 18.15)"/><path d="M188 720c17.67 0 32 8.95 32 20s-14.33 20-32 20H92c-17.67 0-32-8.95-32-20s14.33-20 32-20z" stroke="#000" stroke-width="2" fill="#fff"/><use xlink:href="#i" transform="matrix(1,0,0,1,65,725) translate(52.005 18.15)"/><path d="M258 570H140v90.5" stroke="#000" stroke-width="2" fill="none"/><path d="M259 571h-1.03v-2H259z"/><path d="M140 675.76l-4.64-14.26h9.28z" stroke="#000" stroke-width="2"/><path d="M222 740h238.5" stroke="#000" stroke-width="2" fill="none"/><path d="M222.03 741h-1.1l.07-.96v-.2l-.07-.84h1.1z"/><path d="M475.76 740l-14.26 4.64v-9.28z" stroke="#000" stroke-width="2"/><path d="M480 690h220v100H480z" stroke="#000" stroke-width="2" fill="#fff"/><use xlink:href="#j" transform="matrix(1,0,0,1,485,695) translate(100 48.15)"/><path d="M1020 520h220v100h-220z" stroke="#000" stroke-width="2" fill="#fff"/><use xlink:href="#k" transform="matrix(1,0,0,1,1025,525) translate(38.974999999999994 48.15)"/><path d="M862 570h138.5" stroke="#000" stroke-width="2" fill="none"/><path d="M862.03 571H861v-2h1.03z"/><path d="M1015.76 570l-14.26 4.64v-9.28z" stroke="#000" stroke-width="2"/><path d="M1020 320h220v100h-220z" stroke="#000" stroke-width="2" fill="#fff"/><use xlink:href="#l" transform="matrix(1,0,0,1,1025,325) translate(40 48.15)"/><path d="M1130 518v-78.5" stroke="#000" stroke-width="2" fill="none"/><path d="M1131 519h-2v-1.03h2z"/><path d="M1130 424.24l4.64 14.26h-9.28z" stroke="#000" stroke-width="2"/><defs><path d="M143 4C61 4 22-44 18-125c-5-107 100-154 193-111 17 8 29 25 37 43l-32 9c-13-25-37-40-76-40-61 0-88 39-88 99 0 61 29 100 91 101 35 0 62-11 79-27v-45h-74v-28h105v86C228-13 192 4 143 4" id="m"/><path d="M24-231v-30h32v30H24zM24 0v-190h32V0H24" id="n"/><path d="M59-47c-2 24 18 29 38 22v24C64 9 27 4 27-40v-127H5v-23h24l9-43h21v43h35v23H59v120" id="o"/><path d="M197 0v-115H63V0H30v-248h33v105h134v-105h34V0h-34" id="p"/><path d="M84 4C-5 8 30-112 23-190h32v120c0 31 7 50 39 49 72-2 45-101 50-169h31l1 190h-30c-1-10 1-25-2-33-11 22-28 36-60 37" id="q"/><path d="M115-194c53 0 69 39 70 98 0 66-23 100-70 100C84 3 66-7 56-30L54 0H23l1-261h32v101c10-23 28-34 59-34zm-8 174c40 0 45-34 45-75 0-40-5-75-45-74-42 0-51 32-51 76 0 43 10 73 51 73" id="r"/><g id="a"><use transform="matrix(0.05,0,0,0.05,0,0)" xlink:href="#m"/><use transform="matrix(0.05,0,0,0.05,14,0)" xlink:href="#n"/><use transform="matrix(0.05,0,0,0.05,17.95,0)" xlink:href="#o"/><use transform="matrix(0.05,0,0,0.05,22.95,0)" xlink:href="#p"/><use transform="matrix(0.05,0,0,0.05,35.9,0)" xlink:href="#q"/><use transform="matrix(0.05,0,0,0.05,45.9,0)" xlink:href="#r"/></g><path d="M114-163C36-179 61-72 57 0H25l-1-190h30c1 12-1 29 2 39 6-27 23-49 58-41v29" id="s"/><path d="M141-36C126-15 110 5 73 4 37 3 15-17 15-53c-1-64 63-63 125-63 3-35-9-54-41-54-24 1-41 7-42 31l-33-3c5-37 33-52 76-52 45 0 72 20 72 64v82c-1 20 7 32 28 27v20c-31 9-61-2-59-35zM48-53c0 20 12 33 32 33 41-3 63-29 60-74-43 2-92-5-92 41" id="t"/><path d="M115-194c55 1 70 41 70 98S169 2 115 4C84 4 66-9 55-30l1 105H24l-1-265h31l2 30c10-21 28-34 59-34zm-8 174c40 0 45-34 45-75s-6-73-45-74c-42 0-51 32-51 76 0 43 10 73 51 73" id="u"/><path d="M106-169C34-169 62-67 57 0H25v-261h32l-1 103c12-21 28-36 61-36 89 0 53 116 60 194h-32v-121c2-32-8-49-39-48" id="v"/><path d="M140-251c81 0 123 46 123 126C263-53 228-8 163 1c7 30 30 48 69 40v23c-55 16-95-15-103-61C56-3 17-48 17-125c0-80 42-126 123-126zm0 227c63 0 89-41 89-101s-29-99-89-99c-61 0-89 39-89 99S79-25 140-24" id="w"/><path d="M30 0v-248h33v221h125V0H30" id="x"/><g id="b"><use transform="matrix(0.05,0,0,0.05,0,0)" xlink:href="#m"/><use transform="matrix(0.05,0,0,0.05,14,0)" xlink:href="#s"/><use transform="matrix(0.05,0,0,0.05,19.95,0)" xlink:href="#t"/><use transform="matrix(0.05,0,0,0.05,29.950000000000003,0)" xlink:href="#u"/><use transform="matrix(0.05,0,0,0.05,39.95,0)" xlink:href="#v"/><use transform="matrix(0.05,0,0,0.05,49.95,0)" xlink:href="#w"/><use transform="matrix(0.05,0,0,0.05,63.95,0)" xlink:href="#x"/></g><path d="M205 0l-28-72H64L36 0H1l101-248h38L239 0h-34zm-38-99l-47-123c-12 45-31 82-46 123h93" id="y"/><path d="M30-248c87 1 191-15 191 75 0 78-77 80-158 76V0H30v-248zm33 125c57 0 124 11 124-50 0-59-68-47-124-48v98" id="z"/><path d="M33 0v-248h34V0H33" id="A"/><g id="c"><use transform="matrix(0.05,0,0,0.05,0,0)" xlink:href="#y"/><use transform="matrix(0.05,0,0,0.05,12,0)" xlink:href="#z"/><use transform="matrix(0.05,0,0,0.05,24,0)" xlink:href="#A"/></g><path d="M198-261c85 0 136 45 136 128 0 61-22 111-78 115-29 2-39-18-37-44-12 23-32 44-66 44-41 0-58-28-58-68 0-60 30-105 88-108 29-1 43 15 54 32l7-28h28c-9 45-23 84-27 134-1 11 6 17 14 16 39-4 51-48 51-92 0-69-42-107-112-107-93 0-145 59-145 153C53-15 94 26 168 27c43 0 78-13 106-28l9 19c-30 18-67 32-115 32C79 50 28-1 28-86c0-107 62-175 170-175zM158-41c46 0 70-43 70-90 0-26-17-40-43-40-44 0-59 41-61 85-1 26 9 45 34 45" id="B"/><path d="M100-194c63 0 86 42 84 106H49c0 40 14 67 53 68 26 1 43-12 49-29l28 8c-11 28-37 45-77 45C44 4 14-33 15-96c1-61 26-98 85-98zm52 81c6-60-76-77-97-28-3 7-6 17-6 28h103" id="C"/><path d="M108 0H70L1-190h34L89-25l56-165h34" id="D"/><path d="M206 0h-36l-40-164L89 0H53L-1-190h32L70-26l43-164h34l41 164 42-164h31" id="E"/><path d="M0 4l72-265h28L28 4H0" id="F"/><path d="M177-190C167-65 218 103 67 71c-23-6-38-20-44-43l32-5c15 47 100 32 89-28v-30C133-14 115 1 83 1 29 1 15-40 15-95c0-56 16-97 71-98 29-1 48 16 59 35 1-10 0-23 2-32h30zM94-22c36 0 50-32 50-73 0-42-14-75-50-75-39 0-46 34-46 75s6 73 46 73" id="G"/><path d="M16-82v-28h88v28H16" id="H"/><path d="M101-234c-31-9-42 10-38 44h38v23H63V0H32v-167H5v-23h27c-7-52 17-82 69-68v24" id="I"/><path d="M96-169c-40 0-48 33-48 73s9 75 48 75c24 0 41-14 43-38l32 2c-6 37-31 61-74 61-59 0-76-41-82-99-10-93 101-131 147-64 4 7 5 14 7 22l-32 3c-4-21-16-35-41-35" id="J"/><g id="d"><use transform="matrix(0.05,0,0,0.05,0,0)" xlink:href="#B"/><use transform="matrix(0.05,0,0,0.05,18.25,0)" xlink:href="#s"/><use transform="matrix(0.05,0,0,0.05,24.2,0)" xlink:href="#C"/><use transform="matrix(0.05,0,0,0.05,34.2,0)" xlink:href="#D"/><use transform="matrix(0.05,0,0,0.05,43.2,0)" xlink:href="#n"/><use transform="matrix(0.05,0,0,0.05,47.150000000000006,0)" xlink:href="#C"/><use transform="matrix(0.05,0,0,0.05,57.150000000000006,0)" xlink:href="#E"/><use transform="matrix(0.05,0,0,0.05,70.10000000000001,0)" xlink:href="#F"/><use transform="matrix(0.05,0,0,0.05,75.10000000000001,0)" xlink:href="#G"/><use transform="matrix(0.05,0,0,0.05,85.10000000000001,0)" xlink:href="#n"/><use transform="matrix(0.05,0,0,0.05,89.05000000000001,0)" xlink:href="#o"/><use transform="matrix(0.05,0,0,0.05,94.05000000000001,0)" xlink:href="#v"/><use transform="matrix(0.05,0,0,0.05,104.05000000000001,0)" xlink:href="#q"/><use transform="matrix(0.05,0,0,0.05,114.05000000000001,0)" xlink:href="#r"/><use transform="matrix(0.05,0,0,0.05,124.05000000000001,0)" xlink:href="#H"/><use transform="matrix(0.05,0,0,0.05,130,0)" xlink:href="#I"/><use transform="matrix(0.05,0,0,0.05,135,0)" xlink:href="#C"/><use transform="matrix(0.05,0,0,0.05,145,0)" xlink:href="#o"/><use transform="matrix(0.05,0,0,0.05,150,0)" xlink:href="#J"/><use transform="matrix(0.05,0,0,0.05,159,0)" xlink:href="#v"/></g><path d="M117-194c89-4 53 116 60 194h-32v-121c0-31-8-49-39-48C34-167 62-67 57 0H25l-1-190h30c1 10-1 24 2 32 11-22 29-35 61-36" id="K"/><path d="M135-143c-3-34-86-38-87 0 15 53 115 12 119 90S17 21 10-45l28-5c4 36 97 45 98 0-10-56-113-15-118-90-4-57 82-63 122-42 12 7 21 19 24 35" id="L"/><g id="e"><use transform="matrix(0.05,0,0,0.05,0,0)" xlink:href="#B"/><use transform="matrix(0.05,0,0,0.05,18.25,0)" xlink:href="#s"/><use transform="matrix(0.05,0,0,0.05,24.2,0)" xlink:href="#C"/><use transform="matrix(0.05,0,0,0.05,34.2,0)" xlink:href="#D"/><use transform="matrix(0.05,0,0,0.05,43.2,0)" xlink:href="#n"/><use transform="matrix(0.05,0,0,0.05,47.150000000000006,0)" xlink:href="#C"/><use transform="matrix(0.05,0,0,0.05,57.150000000000006,0)" xlink:href="#E"/><use transform="matrix(0.05,0,0,0.05,70.10000000000001,0)" xlink:href="#F"/><use transform="matrix(0.05,0,0,0.05,75.10000000000001,0)" xlink:href="#C"/><use transform="matrix(0.05,0,0,0.05,85.10000000000001,0)" xlink:href="#D"/><use transform="matrix(0.05,0,0,0.05,94.10000000000001,0)" xlink:href="#C"/><use transform="matrix(0.05,0,0,0.05,104.10000000000001,0)" xlink:href="#K"/><use transform="matrix(0.05,0,0,0.05,114.10000000000001,0)" xlink:href="#o"/><use transform="matrix(0.05,0,0,0.05,119.10000000000001,0)" xlink:href="#L"/></g><path d="M210-169c-67 3-38 105-44 169h-31v-121c0-29-5-50-35-48C34-165 62-65 56 0H25l-1-190h30c1 10-1 24 2 32 10-44 99-50 107 0 11-21 27-35 58-36 85-2 47 119 55 194h-31v-121c0-29-5-49-35-48" id="M"/><path d="M100-194c62-1 85 37 85 99 1 63-27 99-86 99S16-35 15-95c0-66 28-99 85-99zM99-20c44 1 53-31 53-75 0-43-8-75-51-75s-53 32-53 75 10 74 51 75" id="N"/><path d="M160-131c35 5 61 23 61 61C221 17 115-2 30 0v-248c76 3 177-17 177 60 0 33-19 50-47 57zm-97-11c50-1 110 9 110-42 0-47-63-36-110-37v79zm0 115c55-2 124 14 124-45 0-56-70-42-124-44v89" id="O"/><path d="M30-248c118-7 216 8 213 122C240-48 200 0 122 0H30v-248zM63-27c89 8 146-16 146-99s-60-101-146-95v194" id="P"/><g id="f"><use transform="matrix(0.05,0,0,0.05,0,0)" xlink:href="#M"/><use transform="matrix(0.05,0,0,0.05,14.950000000000001,0)" xlink:href="#N"/><use transform="matrix(0.05,0,0,0.05,24.950000000000003,0)" xlink:href="#K"/><use transform="matrix(0.05,0,0,0.05,34.95,0)" xlink:href="#G"/><use transform="matrix(0.05,0,0,0.05,44.95,0)" xlink:href="#N"/><use transform="matrix(0.05,0,0,0.05,54.95,0)" xlink:href="#O"/><use transform="matrix(0.05,0,0,0.05,66.95,0)" xlink:href="#P"/></g><g id="g"><use transform="matrix(0.05,0,0,0.05,0,0)" xlink:href="#m"/><use transform="matrix(0.05,0,0,0.05,14,0)" xlink:href="#s"/><use transform="matrix(0.05,0,0,0.05,19.95,0)" xlink:href="#t"/><use transform="matrix(0.05,0,0,0.05,29.950000000000003,0)" xlink:href="#u"/><use transform="matrix(0.05,0,0,0.05,39.95,0)" xlink:href="#v"/><use transform="matrix(0.05,0,0,0.05,49.95,0)" xlink:href="#w"/><use transform="matrix(0.05,0,0,0.05,63.95,0)" xlink:href="#x"/></g><path d="M233-177c-1 41-23 64-60 70L243 0h-38l-65-103H63V0H30v-248c88 3 205-21 203 71zM63-129c60-2 137 13 137-47 0-61-80-42-137-45v92" id="Q"/><path d="M30 0v-248h187v28H63v79h144v27H63v87h162V0H30" id="R"/><path d="M185-189c-5-48-123-54-124 2 14 75 158 14 163 119 3 78-121 87-175 55-17-10-28-26-33-46l33-7c5 56 141 63 141-1 0-78-155-14-162-118-5-82 145-84 179-34 5 7 8 16 11 25" id="S"/><path d="M127-220V0H93v-220H8v-28h204v28h-85" id="T"/><g id="h"><use transform="matrix(0.05,0,0,0.05,0,0)" xlink:href="#Q"/><use transform="matrix(0.05,0,0,0.05,12.950000000000001,0)" xlink:href="#R"/><use transform="matrix(0.05,0,0,0.05,24.950000000000003,0)" xlink:href="#S"/><use transform="matrix(0.05,0,0,0.05,36.95,0)" xlink:href="#T"/></g><g id="i"><use transform="matrix(0.05,0,0,0.05,0,0)" xlink:href="#R"/><use transform="matrix(0.05,0,0,0.05,12,0)" xlink:href="#D"/><use transform="matrix(0.05,0,0,0.05,21,0)" xlink:href="#C"/><use transform="matrix(0.05,0,0,0.05,31,0)" xlink:href="#K"/><use transform="matrix(0.05,0,0,0.05,41,0)" xlink:href="#o"/></g><path d="M103-251c84 0 111 97 45 133-19 10-37 24-39 52H78c0-63 77-55 77-114 0-30-21-42-52-43-32 0-53 17-56 46l-32-2c7-45 34-72 88-72zM77 0v-35h34V0H77" id="U"/><use transform="matrix(0.05,0,0,0.05,0,0)" xlink:href="#U" id="j"/><path d="M143 0L79-87 56-68V0H24v-261h32v163l83-92h37l-77 82L181 0h-38" id="V"/><g id="k"><use transform="matrix(0.05,0,0,0.05,0,0)" xlink:href="#B"/><use transform="matrix(0.05,0,0,0.05,18.25,0)" xlink:href="#s"/><use transform="matrix(0.05,0,0,0.05,24.2,0)" xlink:href="#C"/><use transform="matrix(0.05,0,0,0.05,34.2,0)" xlink:href="#D"/><use transform="matrix(0.05,0,0,0.05,43.2,0)" xlink:href="#n"/><use transform="matrix(0.05,0,0,0.05,47.150000000000006,0)" xlink:href="#C"/><use transform="matrix(0.05,0,0,0.05,57.150000000000006,0)" xlink:href="#E"/><use transform="matrix(0.05,0,0,0.05,70.10000000000001,0)" xlink:href="#F"/><use transform="matrix(0.05,0,0,0.05,75.10000000000001,0)" xlink:href="#q"/><use transform="matrix(0.05,0,0,0.05,85.10000000000001,0)" xlink:href="#n"/><use transform="matrix(0.05,0,0,0.05,89.05000000000001,0)" xlink:href="#F"/><use transform="matrix(0.05,0,0,0.05,94.05000000000001,0)" xlink:href="#r"/><use transform="matrix(0.05,0,0,0.05,104.05000000000001,0)" xlink:href="#t"/><use transform="matrix(0.05,0,0,0.05,114.05000000000001,0)" xlink:href="#J"/><use transform="matrix(0.05,0,0,0.05,123.05000000000001,0)" xlink:href="#V"/></g><g id="l"><use transform="matrix(0.05,0,0,0.05,0,0)" xlink:href="#B"/><use transform="matrix(0.05,0,0,0.05,18.25,0)" xlink:href="#s"/><use transform="matrix(0.05,0,0,0.05,24.2,0)" xlink:href="#C"/><use transform="matrix(0.05,0,0,0.05,34.2,0)" xlink:href="#D"/><use transform="matrix(0.05,0,0,0.05,43.2,0)" xlink:href="#n"/><use transform="matrix(0.05,0,0,0.05,47.150000000000006,0)" xlink:href="#C"/><use transform="matrix(0.05,0,0,0.05,57.150000000000006,0)" xlink:href="#E"/><use transform="matrix(0.05,0,0,0.05,70.10000000000001,0)" xlink:href="#F"/><use transform="matrix(0.05,0,0,0.05,75.10000000000001,0)" xlink:href="#q"/><use transform="matrix(0.05,0,0,0.05,85.10000000000001,0)" xlink:href="#n"/><use transform="matrix(0.05,0,0,0.05,89.05000000000001,0)" xlink:href="#F"/><use transform="matrix(0.05,0,0,0.05,94.05000000000001,0)" xlink:href="#I"/><use transform="matrix(0.05,0,0,0.05,99.05000000000001,0)" xlink:href="#s"/><use transform="matrix(0.05,0,0,0.05,105,0)" xlink:href="#N"/><use transform="matrix(0.05,0,0,0.05,115,0)" xlink:href="#K"/><use transform="matrix(0.05,0,0,0.05,125,0)" xlink:href="#o"/></g></defs></g></svg>